<svg xmlns="http://www.w3.org/2000/svg" height="198.491" width="186.49"><g transform="translate(-1333.252 -4163.029)"><path d="M1426.5 4164.029c-15 42-83.246 48-92.245 46.5 0 81 39.748 143.993 92.245 149.993 52.5-6 92.245-73.5 92.245-149.993-9.002 1.497-77.245-4.502-92.245-46.5z" fill="#d8e9f7" stroke="#3e4147" stroke-linecap="round" stroke-linejoin="round" stroke-width="2"/><ellipse cx="5.958" cy="24.178" fill="#fff" rx="5.958" ry="24.178" transform="rotate(-73.242 3549.055 1212.646)"/><path d="M1426.5 4360.519a67.794 67.794 0 0010.322-2.013 96.625 96.625 0 01-24.443-6.449c-20.082-8.606-33.1-20.081-50.314-47.225s-21.627-76.133-21.624-94.161l-6.168 2.273c.78 79.827 40.25 141.635 92.227 147.575z" fill="#85c3e9"/><path d="M1426.5 4164.029c-15 42-83.246 48-92.245 46.5 0 81 39.748 143.993 92.245 149.993 52.5-6 92.245-73.5 92.245-149.993-9.002 1.497-77.245-4.502-92.245-46.5z" fill="none" stroke="#3e4147" stroke-linecap="round" stroke-linejoin="round" stroke-width="2"/><path d="M1421.652 4199.788c6.179 11.034 28.019 23.173 46.776 26.924s27.364 4.7 26.481 3.23-1.116-5.991-1.116-5.991a92.633 92.633 0 01-40.371-8.934c-20.744-9.931-26.925-20.985-26.925-20.985l-3.891 4.746M1357.812 4287.044c-3.565 2.964 1.043 8.914 3.367 10.947 3.531 3.09 17.689 12.948 25.947 14.639s19.733 4.781 21.94 3.015a5.794 5.794 0 013.972-1.544 11.28 11.28 0 0013.02 5.517c9.269-2.207 16.551-7.5 20.3-18.537 1.987 1.1 8.166-4.855 9.269-5.959s20.964-16.109 20.964-16.109 6.179 3.752 12.138-.221 8.385-7.5 8.606-8.827 1.324-7.5 1.324-7.5a17.62 17.62 0 012.648-3.31c1.561-1.561 1.345-5.038.376-6.838-.256 2.383-1.715 1.493-3.2 2.7-1.164.948-1.028 2.914-3.053 3.017 1.309 4.173-3.067 10.9-6.592 12.816-2.045 1.111-3.2.988-5.224.651-.88-.147-1.812.07-2.621-.475-.881-.594-.869-1.858-1.931-2.355-2.743 2.692-7.509 3.938-10.7 6.156-2.5 1.738-4.569 4.008-7.042 5.734-5.631 3.928-11.8 6.766-17.41 10.514.066-.323-.054-.681-.009-.988a3.657 3.657 0 00-2.549-.037c.088.166.269.188.329.381-1.078 3.941-1.747 7.82-3.779 11.6-2.305 4.288-6.1 6.305-10.256 8.529-3.432 1.835-5.19 2.926-8.894.891a14.207 14.207 0 01-3.564-2.506c-1.423-1.486-2.187-4.029-4.147-4.9-1.157 2.147-1.979 5.455-4.629 5.862-2.089.321-6.345-.668-8.342-1.132-2.891-.671-5.476-2.238-8.385-2.86-1.757-.376-3.569-.281-5.305-.722-5.263-1.338-9.719-5.485-14.177-8.415a82.683 82.683 0 01-12.391-9.734z" fill="#85c3e9"/><g fill="none" stroke="#3e4147" stroke-linecap="round" stroke-linejoin="round" stroke-width="2"><path d="M1379.226 4302.963c12.126 18.34 28.615 35.357 47.271 37.489 27.222-3.111 49.83-33.676 61-68.042M1494.4 4238.1q.618-7.038.623-14.268c-6.685 1.115-50.637-3.634-68.526-29.8-19.412 26.723-61.841 30.915-68.527 29.8a172.891 172.891 0 002.452 29.329"/><path d="M1413 4240.159c-.278.048-1.806.756-2.084.8-4.418.737-8.679 1.853-13.082 2.711-3.641.709-7.43.764-10.97 1.834-6.931 2.093-13.841 4.55-20.86 6.192-4.013.939-8.857 1.678-10.916 5.723-1.585 3.114-.816 9.261 2.62 10.972-3.5 13.846 17.517 21.266 26.932 26.686 4.782 2.754 9.837 3.626 14.722 5.852a74.026 74.026 0 008.5 3.3c3.167.983 3.837.606 5.284-2.329a79.152 79.152 0 003.505-9.281c2.234-6.459 5.013-12.866 11.6-16.3 3.213-1.675 7.5-2.954 10.407-.238 2.5 2.341 2.273 5.8 2.7 8.871.266 1.907-.361 5.51 1.226 6.377 2.1 1.149 6.582-2.638 8.468-3.821 8.768-5.5 17.4-11.17 25.782-17.231 1.857-1.344 6.028-2.976 7.225-4.932 1.483-2.421 1.221-7.945 2.426-10.946.86-2.145 2.739-7.873 5.678-5.74 1.213.879 2.294 4.908 2.519 6.29.219 1.339-.247 2.6.015 3.948a1.324 1.324 0 001.463-.591c4.114-3.946 2.8-16.013-1.23-19.744-3.79-3.509-10.7-6.442-15.584-7.884a32.562 32.562 0 00-12.243-1.665 128.546 128.546 0 00-14.348 2.178"/><path d="M1441.877 4290.691a27.6 27.6 0 01-1.827 8.068c-4.081 10.534-13.472 16.717-20.974 13.81-3.533-1.369-6.018-4.51-7.231-8.551"/><ellipse cx="10.128" cy="7.213" rx="10.128" ry="7.213" transform="rotate(-68.819 3847.163 1116.467)"/><path d="M1495.1 4258.924a17.468 17.468 0 01-.287 3.139c-1.246 6.821-6.193 11.631-11.05 10.744a7.5 7.5 0 01-4.993-3.7"/><path d="M1486.479 4254.292a3.252 3.252 0 01.654.051c2.4.439 3.855 3.533 3.238 6.91s-3.066 5.758-5.471 5.319a3.285 3.285 0 01-1.349-.585"/><ellipse cx="6.644" cy="4.535" rx="6.644" ry="4.535" transform="rotate(-81.271 3193.308 1334.046)"/><ellipse cx="6.028" cy="4.114" rx="6.028" ry="4.114" transform="rotate(-81.271 3162.731 1344.528)"/><path d="M1362.029 4267.841a20.929 20.929 0 00.388 6.491c.445 2.453 18.7 12.733 19.823 13.364a9.151 9.151 0 002.4 1.12c1.868.405 1.758-1.722 1.78-3.271.025-1.77.261-2.808-.274-4.508-.7-2.223-4.317-4.072-6.237-5.229-4.122-2.483-7.943-5.336-12.3-7.431-1.462-.699-5.224-2.189-5.58-.536zM1413.258 4241.349a6.4 6.4 0 00-2.626.475c-1.678.424-33.835 13.217-35.362 14.177-.617.387-2.116 1.1-2.012 2.035.095.853 1.4 1.21 1.987 1.585 1.227.781 7.994 4.537 10.16 5.383a41.176 41.176 0 005.018 1.544c2.215.55 4.046-.451 6.15-1.186 2.9-1.014 15.269-4.7 18.586-5.5 2.991-.719 14.557-4.062 17.392-4.88 2.43-.7 5-1.193 7.471-1.736 1.245-.273 3.39-.415 4.373-1.268 3.385-2.936-12.5-7.633-14.226-8.111-3.351-.928-6.83-1.4-10.216-2.131a22.574 22.574 0 00-3.591-.443c-.545-.029-2.134-.008-3.104.056zM1357.02 4274.754c-2.571 1.863-2.94 4.86-2.446 8.132.385 2.542 5.822 7.442 13.127 13.36 12.929 10.286 37.505 14.723 38.82 14.173a5.579 5.579 0 002.371-2.412c.593-1.126 1.578-2.345 2.08-3.408"/><path d="M1412.561 4241.029c12.379-2.474 36.678 8.512 43.793 7.693 1.648-.189 2.193.193 2.529-1.536a25.457 25.457 0 00.433-6.445c-.141-1.989.013-4.051-.239-6.018a3.124 3.124 0 00-.346-1.543c-.739-.936-3-1.274-4.027-1.523-4.145-1-8.233-1.86-12.412-2.685-1.98-.391-3.94-.868-5.92-1.258-1.916-.377-11.133-1.82-13.3-1.277-1.117.278-1.641 1.428-2.343 2.348-1.355 1.777-2.5 3.719-3.925 5.429a45.317 45.317 0 00-4.238 6.815M1433.049 4274.371c-2.191-3.146 1.525-5.288 3.872-6.825a73.49 73.49 0 0111.139-5.465c3.675-1.576 7.318-3.263 10.927-4.99 4.771-2.284 10.024-3.851 14.948-5.762 1.482-.575 3.31-1.612 4.935-1.65 1.887-.044.9 6.743.662 8.264-.241 1.575-.879 7.468-1.027 8.927-.045.449-.008.931-.044 1.372-.012.141-.108 1.19-.086.711"/><path d="M1465.991 4257.927a1.258 1.258 0 00-.526 1.439c.66 1.466 3.646.32 4.673.048 1.638-.434 6.529-1.182 6.846-3.217.467-2.992-2.509-1.865-4.157-1.251a37.88 37.88 0 00-4.667 2.009 13.185 13.185 0 01-2.169.972zM1458.805 4249.089c6.6 1.917 2.336 32.379 2.439 32.065M1458.468 4248.966c3.968-1.538 8.222-2.21 12.162-4.107 2.229-1.074 4.52-2.1 6.677-3.316.929-.523 3.574-1.759 4.068-2.717 1.263-2.447-10.049-4.368-11.947-4.79a16.746 16.746 0 00-6.23-.6q-2.141.316-4.23.743M1499.3 4247.126c2.423-.807 3.721 1.1 3.182 3.365-.573 2.409-1.642 4.307-4.1 4.461"/></g><path d="M1382.155 4314.5c9.733 12.754 29.536 27.858 36.249 29.872s3.356 6.377-3.021 6.041-28.865-17.117-34.235-24.837-4.441-11.012 1.007-11.076zM1427.13 4177.9c-2.013 2.35.336 9.063 3.692 12.419a89.3 89.3 0 0031.55 21.145c17.454 6.713 33.9 9.4 37.928 7.384s8.39-2.349 5.37-3.356-32.743-5.35-50.01-14.768c-18.46-10.073-28.53-22.824-28.53-22.824z" fill="#fff"/><ellipse cx="1.505" cy="4.265" fill="#fff" rx="1.505" ry="4.265" transform="rotate(-59.976 4415.712 833.237)"/></g></svg>
