<svg fill="none" height="400" viewBox="0 0 1040 400" width="1040" xmlns="http://www.w3.org/2000/svg" xmlns:xlink="http://www.w3.org/1999/xlink"><filter id="a" color-interpolation-filters="sRGB" filterUnits="userSpaceOnUse" height="372.646" width="222.009" x="335" y="32.7807"><feFlood flood-opacity="0" result="BackgroundImageFix"/><feBlend in="SourceGraphic" in2="BackgroundImageFix" mode="normal" result="shape"/><feGaussianBlur result="effect1_foregroundBlur" stdDeviation="20"/></filter><filter id="b" color-interpolation-filters="sRGB" filterUnits="userSpaceOnUse" height="332.646" width="182.009" x="355" y="52.7807"><feFlood flood-opacity="0" result="BackgroundImageFix"/><feBlend in="SourceGraphic" in2="BackgroundImageFix" mode="normal" result="shape"/><feGaussianBlur result="effect1_foregroundBlur" stdDeviation="10"/></filter><filter id="c" color-interpolation-filters="sRGB" filterUnits="userSpaceOnUse" height="372.646" width="222.009" x="499.991" y="32.7807"><feFlood flood-opacity="0" result="BackgroundImageFix"/><feBlend in="SourceGraphic" in2="BackgroundImageFix" mode="normal" result="shape"/><feGaussianBlur result="effect1_foregroundBlur" stdDeviation="20"/></filter><filter id="d" color-interpolation-filters="sRGB" filterUnits="userSpaceOnUse" height="332.646" width="182.009" x="519.991" y="52.7807"><feFlood flood-opacity="0" result="BackgroundImageFix"/><feBlend in="SourceGraphic" in2="BackgroundImageFix" mode="normal" result="shape"/><feGaussianBlur result="effect1_foregroundBlur" stdDeviation="10"/></filter><filter id="e" color-interpolation-filters="sRGB" filterUnits="userSpaceOnUse" height="305.108" width="166.242" x="365" y="65.2531"><feFlood flood-opacity="0" result="BackgroundImageFix"/><feBlend in="SourceGraphic" in2="BackgroundImageFix" mode="normal" result="shape"/><feGaussianBlur result="effect1_foregroundBlur" stdDeviation="20"/></filter><filter id="f" color-interpolation-filters="sRGB" filterUnits="userSpaceOnUse" height="265.108" width="126.242" x="385" y="85.2531"><feFlood flood-opacity="0" result="BackgroundImageFix"/><feBlend in="SourceGraphic" in2="BackgroundImageFix" mode="normal" result="shape"/><feGaussianBlur result="effect1_foregroundBlur" stdDeviation="10"/></filter><filter id="g" color-interpolation-filters="sRGB" filterUnits="userSpaceOnUse" height="305.146" width="165.725" x="525.275" y="65.0402"><feFlood flood-opacity="0" result="BackgroundImageFix"/><feBlend in="SourceGraphic" in2="BackgroundImageFix" mode="normal" result="shape"/><feGaussianBlur result="effect1_foregroundBlur" stdDeviation="20"/></filter><filter id="h" color-interpolation-filters="sRGB" filterUnits="userSpaceOnUse" height="265.146" width="125.725" x="545.275" y="85.0402"><feFlood flood-opacity="0" result="BackgroundImageFix"/><feBlend in="SourceGraphic" in2="BackgroundImageFix" mode="normal" result="shape"/><feGaussianBlur result="effect1_foregroundBlur" stdDeviation="10"/></filter><filter id="i" color-interpolation-filters="sRGB" filterUnits="userSpaceOnUse" height="324" width="174" x="441" y=".800003"><feFlood flood-opacity="0" result="BackgroundImageFix"/><feBlend in="SourceGraphic" in2="BackgroundImageFix" mode="normal" result="shape"/><feGaussianBlur result="effect1_foregroundBlur" stdDeviation="20"/></filter><filter id="j" color-interpolation-filters="sRGB" filterUnits="userSpaceOnUse" height="284" width="134" x="461" y="20.8"><feFlood flood-opacity="0" result="BackgroundImageFix"/><feBlend in="SourceGraphic" in2="BackgroundImageFix" mode="normal" result="shape"/><feGaussianBlur result="effect1_foregroundBlur" stdDeviation="10"/></filter><filter id="k" color-interpolation-filters="sRGB" filterUnits="userSpaceOnUse" height="127.834" width="111.099" x="472.451" y="152.17"><feFlood flood-opacity="0" result="BackgroundImageFix"/><feBlend in="SourceGraphic" in2="BackgroundImageFix" mode="normal" result="shape"/><feGaussianBlur result="effect1_foregroundBlur" stdDeviation="10"/></filter><filter id="l" color-interpolation-filters="sRGB" filterUnits="userSpaceOnUse" height="153.695" width="131.636" x="462.703" y="43.9746"><feFlood flood-opacity="0" result="BackgroundImageFix"/><feBlend in="SourceGraphic" in2="BackgroundImageFix" mode="normal" result="shape"/><feGaussianBlur result="effect1_foregroundBlur" stdDeviation="20"/></filter><filter id="m" color-interpolation-filters="sRGB" filterUnits="userSpaceOnUse" height="45.43" width="45.43" x="249.899" y="160.384"><feFlood flood-opacity="0" result="BackgroundImageFix"/><feBlend in="SourceGraphic" in2="BackgroundImageFix" mode="normal" result="shape"/><feGaussianBlur result="effect1_foregroundBlur" stdDeviation="10"/></filter><filter id="n" color-interpolation-filters="sRGB" filterUnits="userSpaceOnUse" height="45.352" width="45.351" x="302.47" y="206.369"><feFlood flood-opacity="0" result="BackgroundImageFix"/><feBlend in="SourceGraphic" in2="BackgroundImageFix" mode="normal" result="shape"/><feGaussianBlur result="effect1_foregroundBlur" stdDeviation="10"/></filter><filter id="o" color-interpolation-filters="sRGB" filterUnits="userSpaceOnUse" height="64.888" width="99.8559" x="264.289" y="112.864"><feFlood flood-opacity="0" result="BackgroundImageFix"/><feBlend in="SourceGraphic" in2="BackgroundImageFix" mode="normal" result="shape"/><feGaussianBlur result="effect1_foregroundBlur" stdDeviation="8"/></filter><filter id="p" color-interpolation-filters="sRGB" filterUnits="userSpaceOnUse" height="74.7693" width="118.598" x="259.153" y="226.076"><feFlood flood-opacity="0" result="BackgroundImageFix"/><feBlend in="SourceGraphic" in2="BackgroundImageFix" mode="normal" result="shape"/><feGaussianBlur result="effect1_foregroundBlur" stdDeviation="10"/></filter><filter id="q" color-interpolation-filters="sRGB" filterUnits="userSpaceOnUse" height="36.996" width="36.996" x="328.189" y="36.4566"><feFlood flood-opacity="0" result="BackgroundImageFix"/><feBlend in="SourceGraphic" in2="BackgroundImageFix" mode="normal" result="shape"/><feGaussianBlur result="effect1_foregroundBlur" stdDeviation="8"/></filter><filter id="r" color-interpolation-filters="sRGB" filterUnits="userSpaceOnUse" height="86.3903" width="57.9375" x="369.411" y="10.9995"><feFlood flood-opacity="0" result="BackgroundImageFix"/><feBlend in="SourceGraphic" in2="BackgroundImageFix" mode="normal" result="shape"/><feGaussianBlur result="effect1_foregroundBlur" stdDeviation="8"/></filter><filter id="s" color-interpolation-filters="sRGB" filterUnits="userSpaceOnUse" height="44.886" width="44.887" x="682.904" y="36.1498"><feFlood flood-opacity="0" result="BackgroundImageFix"/><feBlend in="SourceGraphic" in2="BackgroundImageFix" mode="normal" result="shape"/><feGaussianBlur result="effect1_foregroundBlur" stdDeviation="10"/></filter><filter id="t" color-interpolation-filters="sRGB" filterUnits="userSpaceOnUse" height="46.298" width="46.298" x="726.778" y="172.547"><feFlood flood-opacity="0" result="BackgroundImageFix"/><feBlend in="SourceGraphic" in2="BackgroundImageFix" mode="normal" result="shape"/><feGaussianBlur result="effect1_foregroundBlur" stdDeviation="10"/></filter><filter id="u" color-interpolation-filters="sRGB" filterUnits="userSpaceOnUse" height="71.1857" width="114.625" x="677.953" y="232.755"><feFlood flood-opacity="0" result="BackgroundImageFix"/><feBlend in="SourceGraphic" in2="BackgroundImageFix" mode="normal" result="shape"/><feGaussianBlur result="effect1_foregroundBlur" stdDeviation="8"/></filter><filter id="v" color-interpolation-filters="sRGB" filterUnits="userSpaceOnUse" height="61.847" width="98.9879" x="696.414" y="119.597"><feFlood flood-opacity="0" result="BackgroundImageFix"/><feBlend in="SourceGraphic" in2="BackgroundImageFix" mode="normal" result="shape"/><feGaussianBlur result="effect1_foregroundBlur" stdDeviation="8"/></filter><filter id="w" color-interpolation-filters="sRGB" filterUnits="userSpaceOnUse" height="83.5668" width="57.5031" x="636.469" y="13.8228"><feFlood flood-opacity="0" result="BackgroundImageFix"/><feBlend in="SourceGraphic" in2="BackgroundImageFix" mode="normal" result="shape"/><feGaussianBlur result="effect1_foregroundBlur" stdDeviation="8"/></filter><clipPath id="x"><path d="m0 0h1040v400h-1040z"/></clipPath><g clip-path="url(#x)"><path d="m0 0h1040v400h-1040z" fill="#051627"/><path d="m467.041 82.6101c-53.032 23.4279-90.041 76.4869-90.041 138.1899 0 79.019 60.696 143.861 138.009 150.449 0-5.612 0-28.261 0-67.949-30.672-11.667-46.008-29.667-46.008-54s0-42.917 0-55.75" opacity=".26" stroke="#0572ec" stroke-linecap="round" stroke-linejoin="round" stroke-width="6"/><path d="m467.041 82.6101c-53.032 23.4279-90.041 76.4869-90.041 138.1899 0 79.019 60.696 143.861 138.009 150.449 0-5.612 0-28.261 0-67.949-30.672-11.667-46.008-29.667-46.008-54s0-42.917 0-55.75" opacity=".26" stroke="#fff" stroke-linecap="round" stroke-linejoin="round"/><path d="m507 291.3c0-1.381-1.119-2.5-2.5-2.5s-2.5 1.119-2.5 2.5v7c0 1.381 1.119 2.5 2.5 2.5s2.5-1.119 2.5-2.5z" fill="#000"/><path d="m457 81.3c0-1.3807-1.119-2.5-2.5-2.5s-2.5 1.1193-2.5 2.5v7c0 1.3807 1.119 2.5 2.5 2.5s2.5-1.1193 2.5-2.5z" fill="#000"/><path d="m397 143.3c0-1.381-1.119-2.5-2.5-2.5s-2.5 1.119-2.5 2.5v7c0 1.381 1.119 2.5 2.5 2.5s2.5-1.119 2.5-2.5z" fill="#000"/><path d="m431 326.3c0-1.381-1.119-2.5-2.5-2.5s-2.5 1.119-2.5 2.5v7c0 1.381 1.119 2.5 2.5 2.5s2.5-1.119 2.5-2.5z" fill="#000"/><path d="m509 362.3c0-1.381-1.119-2.5-2.5-2.5s-2.5 1.119-2.5 2.5v7c0 1.381 1.119 2.5 2.5 2.5s2.5-1.119 2.5-2.5z" fill="#000"/><g filter="url(#a)"><path d="m467.041 74.6101c-53.032 23.4278-90.041 76.4869-90.041 138.1899 0 79.019 60.696 143.861 138.009 150.449 0-5.612 0-28.261 0-67.949-30.672-11.667-46.008-29.667-46.008-54s0-42.917 0-55.75" stroke="#0572ec" stroke-width="4"/></g><g filter="url(#b)"><path d="m467.041 74.6101c-53.032 23.4278-90.041 76.4869-90.041 138.1899 0 79.019 60.696 143.861 138.009 150.449 0-5.612 0-28.261 0-67.949-30.672-11.667-46.008-29.667-46.008-54s0-42.917 0-55.75" stroke="#0572ec" stroke-width="4"/></g><path d="m467.041 74.6101c-53.032 23.4278-90.041 76.4869-90.041 138.1899 0 79.019 60.696 143.861 138.009 150.449 0-5.612 0-28.261 0-67.949-30.672-11.667-46.008-29.667-46.008-54s0-42.917 0-55.75" stroke="#0572ec" stroke-linecap="round" stroke-linejoin="round" stroke-width="6"/><path d="m467.041 74.6101c-53.032 23.4278-90.041 76.4869-90.041 138.1899 0 79.019 60.696 143.861 138.009 150.449 0-5.612 0-28.261 0-67.949-30.672-11.667-46.008-29.667-46.008-54s0-42.917 0-55.75" stroke="#fff" stroke-linecap="round" stroke-linejoin="round"/><path d="m589.959 82.6101c53.032 23.4279 90.041 76.4869 90.041 138.1899 0 79.019-60.696 143.861-138.009 150.449 0-5.612 0-28.261 0-67.949 30.672-11.667 46.008-29.667 46.008-54s0-42.917 0-55.75" opacity=".26" stroke="#0572ec" stroke-linecap="round" stroke-linejoin="round" stroke-width="6"/><path d="m589.959 82.6101c53.032 23.4279 90.041 76.4869 90.041 138.1899 0 79.019-60.696 143.861-138.009 150.449 0-5.612 0-28.261 0-67.949 30.672-11.667 46.008-29.667 46.008-54s0-42.917 0-55.75" opacity=".26" stroke="#fff" stroke-linecap="round" stroke-linejoin="round"/><path d="m570 277.3c0-1.381 1.119-2.5 2.5-2.5s2.5 1.119 2.5 2.5v7c0 1.381-1.119 2.5-2.5 2.5s-2.5-1.119-2.5-2.5z" fill="#000"/><path d="m590 76.3c0-1.3807 1.119-2.5 2.5-2.5s2.5 1.1193 2.5 2.5v7c0 1.3807-1.119 2.5-2.5 2.5s-2.5-1.1193-2.5-2.5z" fill="#000"/><path d="m650 126.3c0-1.381 1.119-2.5 2.5-2.5s2.5 1.119 2.5 2.5v7c0 1.381-1.119 2.5-2.5 2.5s-2.5-1.119-2.5-2.5z" fill="#000"/><path d="m652 296.3c0-1.381 1.119-2.5 2.5-2.5s2.5 1.119 2.5 2.5v7c0 1.381-1.119 2.5-2.5 2.5s-2.5-1.119-2.5-2.5z" fill="#000"/><path d="m568 358.3c0-1.381 1.119-2.5 2.5-2.5s2.5 1.119 2.5 2.5v7c0 1.381-1.119 2.5-2.5 2.5s-2.5-1.119-2.5-2.5z" fill="#000"/><g filter="url(#c)"><path d="m589.959 74.6101c53.032 23.4278 90.041 76.4869 90.041 138.1899 0 79.019-60.696 143.861-138.009 150.449 0-5.612 0-28.261 0-67.949 30.672-11.667 46.008-29.667 46.008-54s0-42.917 0-55.75" stroke="#0572ec" stroke-width="4"/></g><g filter="url(#d)"><path d="m589.959 74.6101c53.032 23.4278 90.041 76.4869 90.041 138.1899 0 79.019-60.696 143.861-138.009 150.449 0-5.612 0-28.261 0-67.949 30.672-11.667 46.008-29.667 46.008-54s0-42.917 0-55.75" stroke="#0572ec" stroke-width="4"/></g><path d="m589.959 74.6101c53.032 23.4278 90.041 76.4869 90.041 138.1899 0 79.019-60.696 143.861-138.009 150.449 0-5.612 0-28.261 0-67.949 30.672-11.667 46.008-29.667 46.008-54s0-42.917 0-55.75" stroke="#0572ec" stroke-linecap="round" stroke-linejoin="round" stroke-width="6"/><path d="m589.959 74.6101c53.032 23.4278 90.041 76.4869 90.041 138.1899 0 79.019-60.696 143.861-138.009 150.449 0-5.612 0-28.261 0-67.949 30.672-11.667 46.008-29.667 46.008-54s0-42.917 0-55.75" stroke="#fff" stroke-linecap="round" stroke-linejoin="round"/><path d="m470.206 115.009c-37.654 20.51-63.206 60.437-63.206 106.332 0 53.783 35.09 99.371 83.625 115.117" opacity=".26" stroke="#ffaa05" stroke-linecap="round" stroke-linejoin="round" stroke-width="6"/><path d="m470.206 115.009c-37.654 20.51-63.206 60.437-63.206 106.332 0 53.783 35.09 99.371 83.625 115.117" opacity=".26" stroke="#fff" stroke-linecap="round" stroke-linejoin="round"/><path d="m430 281.3c0-1.381-1.119-2.5-2.5-2.5s-2.5 1.119-2.5 2.5v7c0 1.381 1.119 2.5 2.5 2.5s2.5-1.119 2.5-2.5z" fill="#000"/><path d="m430 147.3c0-1.381-1.119-2.5-2.5-2.5s-2.5 1.119-2.5 2.5v7c0 1.381 1.119 2.5 2.5 2.5s2.5-1.119 2.5-2.5z" fill="#000"/><path d="m480 323.3c0-1.381-1.119-2.5-2.5-2.5s-2.5 1.119-2.5 2.5v7c0 1.381 1.119 2.5 2.5 2.5s2.5-1.119 2.5-2.5z" fill="#000"/><path d="m466 111.3c0-1.381-1.119-2.5-2.5-2.5s-2.5 1.119-2.5 2.5v7c0 1.381 1.119 2.5 2.5 2.5s2.5-1.119 2.5-2.5z" fill="#000"/><g filter="url(#e)"><path d="m470.206 107.009c-37.654 20.51-63.206 60.437-63.206 106.332 0 53.783 35.09 99.371 83.625 115.117" stroke="#ffaa05" stroke-width="4"/></g><g filter="url(#f)"><path d="m470.206 107.009c-37.654 20.51-63.206 60.437-63.206 106.332 0 53.783 35.09 99.371 83.625 115.117" stroke="#ffaa05" stroke-width="4"/></g><path d="m470.206 107.009c-37.654 20.51-63.206 60.437-63.206 106.332 0 53.783 35.09 99.371 83.625 115.117" stroke="#ffaa05" stroke-linecap="round" stroke-linejoin="round" stroke-width="6"/><path d="m470.206 107.009c-37.654 20.51-63.206 60.437-63.206 106.332 0 53.783 35.09 99.371 83.625 115.117" stroke="#fff" stroke-linecap="round" stroke-linejoin="round"/><path d="m565.901 336.286c48.262-15.904 83.099-61.356 83.099-114.945 0-46.052-25.727-86.095-63.592-106.541" opacity=".26" stroke="#ffaa05" stroke-linecap="round" stroke-linejoin="round" stroke-width="6"/><path d="m565.901 336.286c48.262-15.904 83.099-61.356 83.099-114.945 0-46.052-25.727-86.095-63.592-106.541" opacity=".26" stroke="#fff" stroke-linecap="round" stroke-linejoin="round"/><path d="m573 327.3c0-1.381-1.119-2.5-2.5-2.5s-2.5 1.119-2.5 2.5v7c0 1.381 1.119 2.5 2.5 2.5s2.5-1.119 2.5-2.5z" fill="#000"/><path d="m623 291.3c0-1.381-1.119-2.5-2.5-2.5s-2.5 1.119-2.5 2.5v7c0 1.381 1.119 2.5 2.5 2.5s2.5-1.119 2.5-2.5z" fill="#000"/><path d="m609 121.3c0-1.381-1.119-2.5-2.5-2.5s-2.5 1.119-2.5 2.5v7c0 1.381 1.119 2.5 2.5 2.5s2.5-1.119 2.5-2.5z" fill="#000"/><g filter="url(#g)"><path d="m565.901 328.286c48.262-15.904 83.099-61.356 83.099-114.945 0-46.052-25.727-86.095-63.592-106.541" stroke="#ffaa05" stroke-width="4"/></g><g filter="url(#h)"><path d="m565.901 328.286c48.262-15.904 83.099-61.356 83.099-114.945 0-46.052-25.727-86.095-63.592-106.541" stroke="#ffaa05" stroke-width="4"/></g><path d="m565.901 328.286c48.262-15.904 83.099-61.356 83.099-114.945 0-46.052-25.727-86.095-63.592-106.541" stroke="#ffaa05" stroke-linecap="round" stroke-linejoin="round" stroke-width="6"/><path d="m565.901 328.286c48.262-15.904 83.099-61.356 83.099-114.945 0-46.052-25.727-86.095-63.592-106.541" stroke="#fff" stroke-linecap="round" stroke-linejoin="round"/><path d="m483 224.05v-128.25c0-24.8528 20.147-45 45-45s45 20.1472 45 45v150c0 24.853-20.147 45-45 45s-45-20.147-45-45" opacity=".26" stroke="#69e6ed" stroke-linecap="round" stroke-linejoin="round" stroke-width="6"/><path d="m483 224.05v-128.25c0-24.8528 20.147-45 45-45s45 20.1472 45 45v150c0 24.853-20.147 45-45 45s-45-20.147-45-45" opacity=".26" stroke="#fff" stroke-linecap="round" stroke-linejoin="round"/><path d="m539 44.3c0-1.3807-1.119-2.5-2.5-2.5s-2.5 1.1193-2.5 2.5v7c0 1.3807 1.119 2.5 2.5 2.5s2.5-1.1193 2.5-2.5z" fill="#000"/><path d="m495 265.3c0-1.381-1.119-2.5-2.5-2.5s-2.5 1.119-2.5 2.5v7c0 1.381 1.119 2.5 2.5 2.5s2.5-1.119 2.5-2.5z" fill="#000"/><path d="m535 282.3c0-1.381-1.119-2.5-2.5-2.5s-2.5 1.119-2.5 2.5v7c0 1.381 1.119 2.5 2.5 2.5s2.5-1.119 2.5-2.5z" fill="#000"/><path d="m565 266.3c0-1.381-1.119-2.5-2.5-2.5s-2.5 1.119-2.5 2.5v7c0 1.381 1.119 2.5 2.5 2.5s2.5-1.119 2.5-2.5z" fill="#000"/><path d="m499 56.3c0-1.3807-1.119-2.5-2.5-2.5s-2.5 1.1193-2.5 2.5v7c0 1.3807 1.119 2.5 2.5 2.5s2.5-1.1193 2.5-2.5z" fill="#000"/><g filter="url(#i)"><path d="m483 216.05v-128.25c0-24.8528 20.147-45 45-45s45 20.1472 45 45v150c0 24.853-20.147 45-45 45s-45-20.147-45-45" stroke="#69e6ed" stroke-width="4"/></g><g filter="url(#j)"><path d="m483 216.05v-128.25c0-24.8528 20.147-45 45-45s45 20.1472 45 45v150c0 24.853-20.147 45-45 45s-45-20.147-45-45" stroke="#69e6ed" stroke-width="4"/></g><path d="m483 216.05v-128.25c0-24.8528 20.147-45 45-45s45 20.1472 45 45v150c0 24.853-20.147 45-45 45s-45-20.147-45-45" stroke="#69e6ed" stroke-linecap="round" stroke-linejoin="round" stroke-width="6"/><path d="m483 216.05v-128.25c0-24.8528 20.147-45 45-45s45 20.1472 45 45v150c0 24.853-20.147 45-45 45s-45-20.147-45-45" stroke="#fff" stroke-linecap="round" stroke-linejoin="round"/><path d="m546.876 196.782c-1.498-3.302-3.686-5.477-6.563-6.524-11.418-4.156-26.186 7.621-32.986 26.304-3.272 8.991-4.103 17.942-2.813 25.273 1.392 7.904 5.25 13.925 11.173 16.081 11.418 4.155 26.186-7.621 32.986-26.305 2.688-7.383 3.721-14.831 3.445-21.249" opacity=".26" stroke="#69e6ed" stroke-linecap="round" stroke-linejoin="round" stroke-width="6"/><path d="m546.876 196.782c-1.498-3.302-3.686-5.477-6.563-6.524-11.418-4.156-26.186 7.621-32.986 26.304-3.272 8.991-4.103 17.942-2.813 25.273 1.392 7.904 5.25 13.925 11.173 16.081 11.418 4.155 26.186-7.621 32.986-26.305 2.688-7.383 3.721-14.831 3.445-21.249" opacity=".26" stroke="#fff" stroke-linecap="round" stroke-linejoin="round"/><path d="m519 249.5c0-1.381-1.119-2.5-2.5-2.5s-2.5 1.119-2.5 2.5v7c0 1.381 1.119 2.5 2.5 2.5s2.5-1.119 2.5-2.5z" fill="#000"/><path d="m549 229.5c0-1.381-1.119-2.5-2.5-2.5s-2.5 1.119-2.5 2.5v7c0 1.381 1.119 2.5 2.5 2.5s2.5-1.119 2.5-2.5z" fill="#000"/><path d="m534 181.5c0-1.381-1.119-2.5-2.5-2.5s-2.5 1.119-2.5 2.5v7c0 1.381 1.119 2.5 2.5 2.5s2.5-1.119 2.5-2.5z" fill="#000"/><g filter="url(#k)"><path d="m546.876 188.782c-1.498-3.302-3.686-5.477-6.563-6.524-11.418-4.156-26.186 7.621-32.986 26.304-3.272 8.991-4.103 17.942-2.813 25.273 1.392 7.904 5.25 13.925 11.173 16.081 11.418 4.155 26.186-7.621 32.986-26.305 2.688-7.383 3.721-14.831 3.445-21.249" stroke="#69e6ed" stroke-width="4"/></g><path d="m546.876 188.782c-1.498-3.302-3.686-5.477-6.563-6.524-11.418-4.156-26.186 7.621-32.986 26.304-3.272 8.991-4.103 17.942-2.813 25.273 1.392 7.904 5.25 13.925 11.173 16.081 11.418 4.155 26.186-7.621 32.986-26.305 2.688-7.383 3.721-14.831 3.445-21.249" stroke="#69e6ed" stroke-linecap="round" stroke-linejoin="round" stroke-width="6"/><path d="m546.876 188.782c-1.498-3.302-3.686-5.477-6.563-6.524-11.418-4.156-26.186 7.621-32.986 26.304-3.272 8.991-4.103 17.942-2.813 25.273 1.392 7.904 5.25 13.925 11.173 16.081 11.418 4.155 26.186-7.621 32.986-26.305 2.688-7.383 3.721-14.831 3.445-21.249" stroke="#fff" stroke-linecap="round" stroke-linejoin="round"/><path d="m550.018 102.602 1.848-8.6274h-32.73l-10.545 33.8934s6.665-12.581 21.145-10.207c14.481 2.373 20.751 18.726 16.354 30.83-4.398 12.104-16.123 17.959-27.446 13.891s-15.245-17.654-13.57-24.43" opacity=".26" stroke="#69e6ed" stroke-linecap="round" stroke-linejoin="round" stroke-width="6"/><path d="m550.018 102.602 1.848-8.6274h-32.73l-10.545 33.8934s6.665-12.581 21.145-10.207c14.481 2.373 20.751 18.726 16.354 30.83-4.398 12.104-16.123 17.959-27.446 13.891s-15.245-17.654-13.57-24.43" opacity=".26" stroke="#fff" stroke-linecap="round" stroke-linejoin="round"/><path d="m509 142.5c0-1.381-1.119-2.5-2.5-2.5s-2.5 1.119-2.5 2.5v7c0 1.381 1.119 2.5 2.5 2.5s2.5-1.119 2.5-2.5z" fill="#000"/><path d="m547 142.5c0-1.381-1.119-2.5-2.5-2.5s-2.5 1.119-2.5 2.5v7c0 1.381 1.119 2.5 2.5 2.5s2.5-1.119 2.5-2.5z" fill="#000"/><path d="m545 85.5c0-1.3807-1.119-2.5-2.5-2.5s-2.5 1.1193-2.5 2.5v7c0 1.3807 1.119 2.5 2.5 2.5s2.5-1.1193 2.5-2.5z" fill="#000"/><path d="m512 116.5c0-1.381-1.119-2.5-2.5-2.5s-2.5 1.119-2.5 2.5v7c0 1.381 1.119 2.5 2.5 2.5s2.5-1.119 2.5-2.5z" fill="#000"/><path d="m535 110.5c0-1.381-1.119-2.5-2.5-2.5s-2.5 1.119-2.5 2.5v7c0 1.381 1.119 2.5 2.5 2.5s2.5-1.119 2.5-2.5z" fill="#000"/><path d="m525 155.5c0-1.381-1.119-2.5-2.5-2.5s-2.5 1.119-2.5 2.5v7c0 1.381 1.119 2.5 2.5 2.5s2.5-1.119 2.5-2.5z" fill="#000"/><g filter="url(#l)"><path d="m550.018 94.6016 1.848-8.627h-32.73l-10.545 33.8934s6.665-12.581 21.145-10.207c14.481 2.373 20.751 18.726 16.354 30.83-4.398 12.104-16.123 17.959-27.446 13.891s-15.245-17.654-13.57-24.43" stroke="#69e6ed" stroke-width="4"/></g><path d="m550.018 94.6016 1.848-8.627h-32.73l-10.545 33.8934s6.665-12.581 21.145-10.207c14.481 2.373 20.751 18.726 16.354 30.83-4.398 12.104-16.123 17.959-27.446 13.891s-15.245-17.654-13.57-24.43" stroke="#69e6ed" stroke-linecap="round" stroke-linejoin="round" stroke-width="6"/><path d="m550.018 94.6016 1.848-8.627h-32.73l-10.545 33.8934s6.665-12.581 21.145-10.207c14.481 2.373 20.751 18.726 16.354 30.83-4.398 12.104-16.123 17.959-27.446 13.891s-15.245-17.654-13.57-24.43" stroke="#fff" stroke-linecap="round" stroke-linejoin="round"/><path d="m279.9 217.524-2.68 8.845m3.239 6.68 9.653 2.342zm-19.459-4.721 8.899 2.159zm13.045 8.517-2.833 9.35z" opacity=".6" stroke="#69e6ed" stroke-linecap="round" stroke-linejoin="round" stroke-width="6"/><path d="m279.9 217.524-2.68 8.845m3.239 6.68 9.653 2.342zm-19.459-4.721 8.899 2.159zm13.045 8.517-2.833 9.35z" opacity=".6" stroke="#fff" stroke-linecap="round" stroke-linejoin="round"/><path d="m279.9 217.524-2.68 8.845m3.239 6.68 9.653 2.342zm-19.459-4.721 8.899 2.159zm13.045 8.517-2.833 9.35z" stroke="#69e6ed" stroke-linecap="round" stroke-linejoin="round" stroke-width="6"/><path d="m279.9 217.524-2.68 8.845m3.239 6.68 9.653 2.342zm-19.459-4.721 8.899 2.159zm13.045 8.517-2.833 9.35z" stroke="#fff" stroke-linecap="round" stroke-linejoin="round"/><g filter="url(#m)"><path clip-rule="evenodd" d="m275.329 183.099c0 1.5-1.215 2.715-2.715 2.715-1.499 0-2.715-1.215-2.715-2.715s1.216-2.715 2.715-2.715c1.5 0 2.715 1.215 2.715 2.715z" fill="#ffaa05" fill-rule="evenodd"/></g><path clip-rule="evenodd" d="m275.329 183.099c0 1.5-1.215 2.715-2.715 2.715-1.499 0-2.715-1.215-2.715-2.715s1.216-2.715 2.715-2.715c1.5 0 2.715 1.215 2.715 2.715z" fill="#ffaa05" fill-rule="evenodd"/><g filter="url(#n)"><path clip-rule="evenodd" d="m327.821 229.045c0 1.478-1.198 2.676-2.676 2.676-1.477 0-2.675-1.198-2.675-2.676s1.198-2.676 2.675-2.676c1.478 0 2.676 1.198 2.676 2.676z" fill="#ffaa05" fill-rule="evenodd"/></g><path clip-rule="evenodd" d="m327.821 229.045c0 1.478-1.198 2.676-2.676 2.676-1.477 0-2.675-1.198-2.675-2.676s1.198-2.676 2.675-2.676c1.478 0 2.676 1.198 2.676 2.676z" fill="#ffaa05" fill-rule="evenodd"/><path d="m329.094 187.009c0 5.998-4.862 10.86-10.859 10.86-5.998 0-10.86-4.862-10.86-10.86s4.862-10.86 10.86-10.86c5.997 0 10.859 4.862 10.859 10.86z" opacity=".8" stroke="#cc4e00" stroke-linecap="round" stroke-linejoin="round" stroke-width="6"/><path d="m329.094 187.009c0 5.998-4.862 10.86-10.859 10.86-5.998 0-10.86-4.862-10.86-10.86s4.862-10.86 10.86-10.86c5.997 0 10.859 4.862 10.859 10.86z" opacity=".8" stroke="#fff" stroke-linecap="round" stroke-linejoin="round"/><path d="m329.094 187.009c0 5.998-4.862 10.86-10.859 10.86-5.998 0-10.86-4.862-10.86-10.86s4.862-10.86 10.86-10.86c5.997 0 10.859 4.862 10.859 10.86z" stroke="#cc4e00" stroke-linecap="round" stroke-linejoin="round" stroke-width="6"/><path d="m329.094 187.009c0 5.998-4.862 10.86-10.859 10.86-5.998 0-10.86-4.862-10.86-10.86s4.862-10.86 10.86-10.86c5.997 0 10.859 4.862 10.859 10.86z" stroke="#fff" stroke-linecap="round" stroke-linejoin="round"/><g filter="url(#o)" opacity=".7"><path d="m282.289 130.864 50.745 22.956m4.34 1.963 8.77 3.968z" stroke="#fff" stroke-linecap="round" stroke-linejoin="round" stroke-width="4"/></g><path d="m282.289 130.864 50.745 22.956m4.34 1.963 8.77 3.968z" stroke="#fff" stroke-linecap="round" stroke-linejoin="round" stroke-width="4"/><g filter="url(#p)" opacity=".6"><path d="m286.091 276.497-6.191 2.494m77.104-31.059-65.114 26.229z" stroke="#fff" stroke-width="4"/></g><path d="m286.091 276.497-6.191 2.494m77.104-31.059-65.114 26.229z" stroke="#fff" stroke-linecap="round" stroke-linejoin="round" stroke-width="4"/><path d="m364.714 95.8413c0 5.1277-4.157 9.2847-9.285 9.2847s-9.285-4.157-9.285-9.2847c0-5.128 4.157-9.285 9.285-9.285s9.285 4.157 9.285 9.285z" opacity=".6" stroke="#0572ec" stroke-linecap="round" stroke-linejoin="round" stroke-width="6"/><path d="m364.714 95.8413c0 5.1277-4.157 9.2847-9.285 9.2847s-9.285-4.157-9.285-9.2847c0-5.128 4.157-9.285 9.285-9.285s9.285 4.157 9.285 9.285z" opacity=".6" stroke="#fff" stroke-linecap="round" stroke-linejoin="round"/><path d="m364.714 95.8413c0 5.1277-4.157 9.2847-9.285 9.2847s-9.285-4.157-9.285-9.2847c0-5.128 4.157-9.285 9.285-9.285s9.285 4.157 9.285 9.285z" stroke="#0572ec" stroke-linecap="round" stroke-linejoin="round" stroke-width="6"/><path d="m364.714 95.8413c0 5.1277-4.157 9.2847-9.285 9.2847s-9.285-4.157-9.285-9.2847c0-5.128 4.157-9.285 9.285-9.285s9.285 4.157 9.285 9.285z" stroke="#fff" stroke-linecap="round" stroke-linejoin="round"/><g filter="url(#q)"><path clip-rule="evenodd" d="m349.185 54.9546c0 1.379-1.119 2.498-2.498 2.498s-2.498-1.119-2.498-2.498 1.119-2.498 2.498-2.498 2.498 1.119 2.498 2.498z" fill="#cc4e00" fill-rule="evenodd"/></g><path clip-rule="evenodd" d="m349.185 54.9546c0 1.379-1.119 2.498-2.498 2.498s-2.498-1.119-2.498-2.498 1.119-2.498 2.498-2.498 2.498 1.119 2.498 2.498z" fill="#cc4e00" fill-rule="evenodd"/><path d="m323.275 86.7046-6.694 6.372m-.477 7.4074 7.242 6.799zm-14.599-13.7047 6.677 6.268zm7.147 13.8437-7.076 6.735z" opacity=".6" stroke="#ffaa05" stroke-linecap="round" stroke-linejoin="round" stroke-width="6"/><path d="m323.275 86.7046-6.694 6.372m-.477 7.4074 7.242 6.799zm-14.599-13.7047 6.677 6.268zm7.147 13.8437-7.076 6.735z" opacity=".6" stroke="#fff" stroke-linecap="round" stroke-linejoin="round"/><path d="m323.275 86.7046-6.694 6.372m-.477 7.4074 7.242 6.799zm-14.599-13.7047 6.677 6.268zm7.147 13.8437-7.076 6.735z" stroke="#ffaa05" stroke-linecap="round" stroke-linejoin="round" stroke-width="6"/><path d="m323.275 86.7046-6.694 6.372m-.477 7.4074 7.242 6.799zm-14.599-13.7047 6.677 6.268zm7.147 13.8437-7.076 6.735z" stroke="#fff" stroke-linecap="round" stroke-linejoin="round"/><path d="m437.13 33.1596.699 9.216m5.434 5.0565 9.847-1.306zm-19.849 2.6333 9.078-1.205zm15.242 3.2246.738 9.741z" opacity=".6" stroke="#0572ec" stroke-linecap="round" stroke-linejoin="round" stroke-width="6"/><path d="m437.13 33.1596.699 9.216m5.434 5.0565 9.847-1.306zm-19.849 2.6333 9.078-1.205zm15.242 3.2246.738 9.741z" opacity=".6" stroke="#fff" stroke-linecap="round" stroke-linejoin="round"/><path d="m437.13 33.1596.699 9.216m5.434 5.0565 9.847-1.306zm-19.849 2.6333 9.078-1.205zm15.242 3.2246.738 9.741z" stroke="#0572ec" stroke-linecap="round" stroke-linejoin="round" stroke-width="6"/><path d="m437.13 33.1596.699 9.216m5.434 5.0565 9.847-1.306zm-19.849 2.6333 9.078-1.205zm15.242 3.2246.738 9.741z" stroke="#fff" stroke-linecap="round" stroke-linejoin="round"/><g filter="url(#r)" opacity=".6"><path d="m387.411 29 9.17 21.065m4.229 9.7113 8.538 19.613z" stroke="#fff" stroke-linecap="round" stroke-linejoin="round" stroke-width="4"/></g><path d="m387.411 29 9.17 21.065m4.229 9.7113 8.538 19.613z" stroke="#fff" stroke-linecap="round" stroke-linejoin="round" stroke-width="4"/><path d="m634.714 45.4795c0 4.558-3.695 8.253-8.253 8.253-4.559 0-8.253-3.695-8.253-8.253s3.694-8.253 8.253-8.253c4.558 0 8.253 3.695 8.253 8.253z" opacity=".6" stroke="#cc4e00" stroke-linecap="round" stroke-linejoin="round" stroke-width="6"/><path d="m634.714 45.4795c0 4.558-3.695 8.253-8.253 8.253-4.559 0-8.253-3.695-8.253-8.253s3.694-8.253 8.253-8.253c4.558 0 8.253 3.695 8.253 8.253z" opacity=".6" stroke="#fff" stroke-linecap="round" stroke-linejoin="round"/><path d="m634.714 45.4795c0 4.558-3.695 8.253-8.253 8.253-4.559 0-8.253-3.695-8.253-8.253s3.694-8.253 8.253-8.253c4.558 0 8.253 3.695 8.253 8.253z" stroke="#cc4e00" stroke-linecap="round" stroke-linejoin="round" stroke-width="6"/><path d="m634.714 45.4795c0 4.558-3.695 8.253-8.253 8.253-4.559 0-8.253-3.695-8.253-8.253s3.694-8.253 8.253-8.253c4.558 0 8.253 3.695 8.253 8.253z" stroke="#fff" stroke-linecap="round" stroke-linejoin="round"/><g filter="url(#s)"><path clip-rule="evenodd" d="m707.791 58.5928c0 1.35-1.094 2.443-2.444 2.443-1.349 0-2.443-1.093-2.443-2.443s1.094-2.443 2.443-2.443c1.35 0 2.444 1.093 2.444 2.443z" fill="#ffaa05" fill-rule="evenodd"/></g><path clip-rule="evenodd" d="m707.791 58.5928c0 1.35-1.094 2.443-2.444 2.443-1.349 0-2.443-1.093-2.443-2.443s1.094-2.443 2.443-2.443c1.35 0 2.444 1.093 2.444 2.443z" fill="#ffaa05" fill-rule="evenodd"/><g filter="url(#t)"><path clip-rule="evenodd" d="m753.076 195.696c0 1.74-1.41 3.149-3.149 3.149-1.74 0-3.149-1.409-3.149-3.149 0-1.739 1.409-3.149 3.149-3.149 1.739 0 3.149 1.41 3.149 3.149z" fill="#cc4e00" fill-rule="evenodd"/></g><path clip-rule="evenodd" d="m753.076 195.696c0 1.74-1.41 3.149-3.149 3.149-1.74 0-3.149-1.409-3.149-3.149 0-1.739 1.409-3.149 3.149-3.149 1.739 0 3.149 1.41 3.149 3.149z" fill="#cc4e00" fill-rule="evenodd"/><g stroke-linecap="round" stroke-linejoin="round"><path d="m739.827 223.497c0 4.978-4.036 9.013-9.014 9.013s-9.013-4.035-9.013-9.013c0-4.979 4.035-9.013 9.013-9.013s9.014 4.034 9.014 9.013z" opacity=".6" stroke="#69e6ed" stroke-width="6"/><path d="m739.827 223.497c0 4.978-4.036 9.013-9.014 9.013s-9.013-4.035-9.013-9.013c0-4.979 4.035-9.013 9.013-9.013s9.014 4.034 9.014 9.013z" opacity=".6" stroke="#fff"/><path d="m739.827 223.497c0 4.978-4.036 9.013-9.014 9.013s-9.013-4.035-9.013-9.013c0-4.979 4.035-9.013 9.013-9.013s9.014 4.034 9.014 9.013z" stroke="#69e6ed" stroke-width="6"/><path d="m739.827 223.497c0 4.978-4.036 9.013-9.014 9.013s-9.013-4.035-9.013-9.013c0-4.979 4.035-9.013 9.013-9.013s9.014 4.034 9.014 9.013z" stroke="#fff"/><path d="m778.922 236.203c0 7.077-5.737 12.814-12.814 12.814-7.078 0-12.815-5.737-12.815-12.814s5.737-12.814 12.815-12.814c7.077 0 12.814 5.737 12.814 12.814z" opacity=".6" stroke="#0572ec" stroke-width="6"/><path d="m778.922 236.203c0 7.077-5.737 12.814-12.814 12.814-7.078 0-12.815-5.737-12.815-12.814s5.737-12.814 12.815-12.814c7.077 0 12.814 5.737 12.814 12.814z" opacity=".6" stroke="#fff"/><path d="m778.922 236.203c0 7.077-5.737 12.814-12.814 12.814-7.078 0-12.815-5.737-12.815-12.814s5.737-12.814 12.815-12.814c7.077 0 12.814 5.737 12.814 12.814z" stroke="#0572ec" stroke-width="6"/><path d="m778.922 236.203c0 7.077-5.737 12.814-12.814 12.814-7.078 0-12.815-5.737-12.815-12.814s5.737-12.814 12.815-12.814c7.077 0 12.814 5.737 12.814 12.814z" stroke="#fff"/><path d="m721.158 91.2724-1.664 9.0906m3.972 6.271 9.856 1.237zm-19.868-2.493 9.087 1.141zm13.924 6.989-1.759 9.609z" opacity=".6" stroke="#ffaa05" stroke-width="6"/><path d="m721.158 91.2724-1.664 9.0906m3.972 6.271 9.856 1.237zm-19.868-2.493 9.087 1.141zm13.924 6.989-1.759 9.609z" opacity=".6" stroke="#fff"/><path d="m721.158 91.2724-1.664 9.0906m3.972 6.271 9.856 1.237zm-19.868-2.493 9.087 1.141zm13.924 6.989-1.759 9.609z" stroke="#ffaa05" stroke-width="6"/><path d="m721.158 91.2724-1.664 9.0906m3.972 6.271 9.856 1.237zm-19.868-2.493 9.087 1.141zm13.924 6.989-1.759 9.609z" stroke="#fff"/></g><g filter="url(#u)" opacity=".6"><path d="m695.954 250.755 64.514 28.871m5.96 2.667 8.15 3.647z" stroke="#fff" stroke-linecap="round" stroke-linejoin="round" stroke-width="4"/></g><path d="m695.954 250.755 64.514 28.871m5.96 2.667 8.15 3.647z" stroke="#fff" stroke-linecap="round" stroke-linejoin="round" stroke-width="4"/><g filter="url(#v)" opacity=".6"><path d="m740.613 152.693 36.789-15.096m-62.987 25.846 18.907-7.759z" stroke="#fff" stroke-linecap="round" stroke-linejoin="round" stroke-width="4"/></g><path d="m740.613 152.693 36.789-15.096m-62.987 25.846 18.907-7.759z" stroke="#fff" stroke-linecap="round" stroke-linejoin="round" stroke-width="4"/><g filter="url(#w)" opacity=".6"><path d="m672.884 38.6543 3.088-6.831m-21.502 47.5658 15.579-34.462z" stroke="#fff" stroke-linecap="round" stroke-linejoin="round" stroke-width="4"/></g><path d="m672.884 38.6543 3.088-6.831m-21.502 47.5658 15.579-34.462z" stroke="#fff" stroke-linecap="round" stroke-linejoin="round" stroke-width="4"/></g></svg>